<svg width="40" height="41" viewBox="0 0 40 41" fill="none" xmlns="http://www.w3.org/2000/svg">
<path d="M0.5 1H35C37.4853 1 39.5 3.01472 39.5 5.5V40H5C2.51472 40 0.5 37.9853 0.5 35.5V1Z" stroke="white" stroke-opacity="0.25"/>
<path fill-rule="evenodd" clip-rule="evenodd" d="M11.4415 20.3312C15.9998 18.299 19.0394 16.9593 20.5603 16.312C24.9027 14.4638 25.805 14.1428 26.3931 14.1322C26.5225 14.1299 26.8117 14.1627 26.999 14.3182C27.1572 14.4496 27.2007 14.627 27.2216 14.7515C27.2424 14.876 27.2683 15.1597 27.2477 15.3814C27.0124 17.9114 25.9942 24.0509 25.4762 26.8846C25.257 28.0836 24.8254 28.4856 24.4076 28.5249C23.4996 28.6104 22.81 27.9109 21.9306 27.321C20.5544 26.3979 19.7769 25.8233 18.441 24.9225C16.8972 23.8815 17.898 23.3093 18.7778 22.3743C19.0081 22.1296 23.0089 18.4059 23.0863 18.0681C23.096 18.0258 23.105 17.8684 23.0136 17.7852C22.9222 17.7021 22.7872 17.7305 22.6898 17.7531C22.5518 17.7852 20.3533 19.2721 16.0943 22.2139C15.4703 22.6524 14.9051 22.866 14.3986 22.8548C13.8403 22.8425 12.7664 22.5318 11.968 22.2662C10.9888 21.9405 10.2105 21.7683 10.2783 21.2152C10.3136 20.927 10.7013 20.6324 11.4415 20.3312Z" fill="white" fill-opacity="0.5"/>
</svg>
