<svg width="40" height="41" viewBox="0 0 40 41" fill="none" xmlns="http://www.w3.org/2000/svg">
<path d="M0.5 1H35C37.4853 1 39.5 3.01472 39.5 5.5V40H5C2.51472 40 0.5 37.9853 0.5 35.5V1Z" stroke="white" stroke-opacity="0.25"/>
<path d="M28.5 15.3427V18.7898C27.9089 18.731 27.141 18.5941 26.2914 18.2769C25.1821 17.8625 24.3564 17.2959 23.8155 16.8571V23.8244L23.8017 23.8026C23.8105 23.9408 23.8155 24.0815 23.8155 24.2235C23.8155 27.6834 21.0535 30.5 17.6577 30.5C14.262 30.5 11.5 27.6834 11.5 24.2235C11.5 20.7635 14.262 17.9456 17.6577 17.9456C17.9903 17.9456 18.3166 17.9725 18.6353 18.0249V21.4222C18.3291 21.3109 18.0003 21.2508 17.6577 21.2508C16.0502 21.2508 14.7414 22.5837 14.7414 24.2235C14.7414 25.8633 16.0502 27.1961 17.6577 27.1961C19.2653 27.1961 20.5741 25.862 20.5741 24.2235C20.5741 24.1621 20.5729 24.1007 20.5691 24.0393V10.5H23.9485C23.9611 10.7916 23.9724 11.0858 23.9849 11.3775C24.0075 11.9518 24.2083 12.5031 24.5584 12.9546C24.9687 13.4854 25.5748 14.1019 26.4257 14.5944C27.2225 15.0536 27.9704 15.2519 28.5 15.3452V15.3427Z" fill="white" fill-opacity="0.5"/>
</svg>
