<svg width="40" height="41" viewBox="0 0 40 41" fill="none" xmlns="http://www.w3.org/2000/svg">
<path d="M0.5 1H35C37.4853 1 39.5 3.01472 39.5 5.5V40H5C2.51472 40 0.5 37.9853 0.5 35.5V1Z" stroke="white" stroke-opacity="0.25"/>
<path d="M30.8125 16.7892C30.6774 15.4287 30.3866 13.9247 29.3164 13.1344C28.4875 12.5214 27.398 12.4988 26.3808 12.5C24.2308 12.5 22.0795 12.5038 19.9294 12.5051C17.8614 12.5076 15.7933 12.5089 13.7253 12.5114C12.8614 12.5114 12.0216 12.4422 11.2193 12.8323C10.5303 13.1671 9.99099 13.8039 9.66643 14.5125C9.21639 15.4979 9.12228 16.6142 9.06798 17.7041C8.96784 19.6888 8.9787 21.6786 9.09815 23.6621C9.18623 25.1094 9.40943 26.709 10.4821 27.6315C11.4328 28.4483 12.7745 28.4886 14.0076 28.4898C17.9217 28.4936 21.837 28.4974 25.7522 28.4999C26.2541 28.5012 26.7778 28.4911 27.2894 28.4332C28.2956 28.3199 29.2548 28.0191 29.9015 27.2414C30.5543 26.4573 30.722 25.3661 30.821 24.3329C31.0623 21.8258 31.0598 19.2949 30.8125 16.7892ZM17.6659 24.0145V16.9855L23.5008 20.4993L17.6659 24.0145Z" fill="white" fill-opacity="0.5"/>
</svg>
